<svg xmlns="http://www.w3.org/2000/svg" viewBox="0 0 512 512"><path d="M224.48,64.17v62q-41.64,9.4-63.33,26.7t-34.7,44.24q-13,26.92-13,65.49,53.79,0,79.23,26T218.12,344q0,34.74-28.34,58.29t-65.93,23.57q-48.59,0-83.86-35.92T4.71,291.56a202.58,202.58,0,0,1,27.76-103q27.77-48,75.47-82.23T224.48,64.17Zm282.81,0v62q-41.64,9.4-63.33,26.7t-34.7,44.24q-13,26.92-13,65.49,53.21,0,78.94,26T500.93,344q0,34.74-28.34,58.29t-65.93,23.57q-49.17,0-84.15-35.92t-35-98.34a202.58,202.58,0,0,1,27.76-103q27.77-48,75.47-82.23T507.29,64.17Z"/></svg>